<?xml version="1.0" standalone="no"?>
<!DOCTYPE svg PUBLIC "-//W3C//DTD SVG 20010904//EN"
 "http://www.w3.org/TR/2001/REC-SVG-20010904/DTD/svg10.dtd">
<svg version="1.0" xmlns="http://www.w3.org/2000/svg"
 width="1920.000000pt" height="1278.000000pt" viewBox="0 0 1920.000000 1278.000000"
 preserveAspectRatio="xMidYMid meet">
<metadata>
Created by potrace 1.16, written by Peter Selinger 2001-2019
</metadata>
<g transform="translate(0.000000,1278.000000) scale(0.100000,-0.100000)"
fill="#000000" stroke="none">
<path d="M0 6390 l0 -6390 9600 0 9600 0 0 1460 c0 1291 -2 1460 -15 1460 -8
0 -15 -5 -15 -11 0 -7 -17 -9 -51 -4 -31 4 -49 4 -46 -2 7 -10 -130 -18 -293
-17 -105 0 -300 29 -300 44 0 4 -13 10 -29 13 -16 3 -35 12 -42 20 -8 7 -37
26 -64 41 -28 15 -73 48 -100 74 -124 117 -374 322 -395 322 -5 0 -10 4 -10 8
0 17 -149 101 -295 167 -323 146 -422 195 -680 334 -44 24 -143 77 -220 119
-77 41 -159 88 -182 104 -23 15 -44 28 -47 28 -8 0 -123 79 -181 125 -57 45
-187 185 -213 230 -31 52 -82 190 -82 221 0 17 -4 34 -10 40 -6 6 -6 20 -1 39
6 17 15 49 22 73 13 45 88 132 114 132 8 0 15 4 15 8 0 12 87 50 145 63 74 17
260 11 425 -12 301 -42 591 -46 815 -12 107 16 297 63 332 82 12 6 30 11 40
11 10 0 29 7 43 14 14 8 44 24 68 35 23 11 49 27 58 36 8 8 28 15 44 15 16 0
30 6 33 13 3 9 42 12 150 12 103 0 150 -4 158 -12 7 -7 30 -13 50 -13 21 0 39
-5 41 -11 3 -8 51 -12 148 -12 151 -1 211 7 413 58 54 14 111 25 127 25 l30 0
0 3730 0 3730 -9600 0 -9600 0 0 -6390z m13070 743 c104 -39 146 -61 179 -95
17 -18 31 -28 31 -23 0 26 185 -179 250 -277 14 -21 31 -38 38 -38 6 0 12 -6
12 -12 0 -22 246 -268 268 -268 6 0 14 -9 17 -20 3 -11 10 -20 14 -20 8 0 146
-135 214 -209 42 -45 111 -85 179 -101 24 -6 113 -15 198 -20 85 -5 180 -14
210 -19 30 -5 91 -15 135 -21 44 -6 96 -17 115 -24 20 -8 87 -26 150 -41 63
-14 142 -33 175 -41 33 -9 76 -20 96 -25 137 -33 244 -90 312 -163 62 -68 87
-109 87 -145 0 -10 4 -21 9 -23 13 -4 29 -130 37 -290 8 -150 -6 -270 -36
-328 -10 -19 -25 -48 -33 -65 -8 -16 -27 -42 -43 -56 -16 -15 -37 -35 -46 -45
-20 -22 -24 -26 -101 -105 -32 -32 -62 -59 -67 -59 -5 0 -12 -9 -15 -20 -3
-11 -12 -20 -19 -20 -7 0 -31 -16 -54 -35 -90 -78 -298 -144 -454 -145 -27 0
-48 -4 -48 -10 0 -5 -9 -10 -20 -10 -11 0 -20 -7 -20 -15 0 -8 -12 -21 -27
-29 -54 -29 -85 -65 -170 -199 -45 -71 -103 -137 -121 -137 -9 0 -23 -6 -31
-13 -38 -32 -161 -62 -346 -84 -22 -2 -42 -8 -45 -13 -3 -5 -14 -8 -25 -7 -11
1 -19 -3 -18 -9 1 -7 -17 -15 -40 -18 -25 -4 -51 -15 -61 -27 -9 -11 -23 -18
-31 -15 -8 3 -17 -3 -20 -14 -3 -10 -14 -21 -23 -24 -9 -3 -22 -16 -28 -28 -6
-13 -24 -48 -39 -78 -15 -30 -43 -100 -61 -155 -53 -159 -63 -186 -96 -250
-63 -122 -113 -164 -208 -172 -43 -4 -59 -2 -69 11 -7 9 -19 16 -26 16 -23 0
-76 32 -109 66 -18 19 -37 34 -42 34 -5 0 -27 18 -49 40 -22 21 -46 39 -53 40
-7 0 -15 7 -18 15 -4 8 -10 13 -14 10 -4 -2 -15 4 -25 15 -10 11 -23 20 -30
20 -6 0 -28 16 -49 35 -21 19 -45 35 -52 35 -8 0 -14 4 -14 9 0 11 -136 65
-217 85 -105 28 -210 -9 -290 -101 -26 -31 -55 -63 -63 -72 -29 -32 -80 -109
-80 -120 0 -6 -4 -11 -8 -11 -5 0 -23 -20 -42 -45 -19 -25 -41 -45 -49 -45
-14 0 -14 -1 -1 -10 12 -7 8 -11 -17 -16 -30 -6 -34 -10 -32 -31 0 -3 -20 -14
-45 -24 -89 -33 -210 7 -237 80 -5 13 -12 21 -16 17 -10 -9 -43 25 -43 44 0
10 -9 29 -20 42 -21 28 -41 83 -62 168 -16 68 -15 377 1 393 6 6 11 22 11 34
0 22 14 103 41 233 17 78 12 279 -6 307 -8 12 -15 27 -15 34 0 16 -88 99 -106
99 -9 0 -18 9 -21 20 -3 11 -11 20 -18 20 -7 0 -18 6 -25 14 -6 8 -17 13 -24
10 -6 -2 -21 4 -32 14 -46 43 -63 46 -264 48 -298 3 -350 24 -560 217 -8 8
-23 17 -33 20 -10 4 -16 11 -13 15 5 8 -34 30 -91 52 -17 6 -96 17 -175 24
-126 11 -151 16 -210 44 -82 40 -128 90 -178 197 -75 158 -80 368 -13 565 73
217 192 341 343 357 60 6 200 -13 200 -27 0 -3 19 -16 43 -28 23 -11 80 -58
127 -103 104 -100 163 -131 334 -174 229 -59 270 -77 351 -154 48 -46 132
-165 154 -220 8 -17 17 -31 22 -31 5 0 15 -15 22 -32 20 -46 125 -152 167
-167 19 -7 42 -16 50 -21 9 -4 31 -11 50 -15 44 -9 225 -96 276 -133 22 -15
53 -34 69 -42 17 -8 38 -21 49 -30 10 -8 32 -16 50 -17 94 -5 135 -2 168 12
21 8 46 15 57 15 11 0 21 4 23 8 2 4 25 25 53 46 27 20 57 49 67 64 11 16 18
21 18 12 0 -8 7 -2 15 14 8 15 15 35 15 42 0 8 6 17 14 20 49 19 38 835 -13
874 -3 3 -12 23 -19 45 -21 63 -51 125 -61 125 -5 0 -11 8 -15 18 -9 26 -47
92 -83 144 -30 42 -40 68 -42 106 -1 7 -6 10 -13 6 -6 -4 -8 -3 -5 3 4 6 0 23
-8 39 -18 38 -16 325 3 332 6 2 12 11 12 19 0 9 17 41 37 72 21 31 38 59 38
62 0 3 14 18 30 33 17 15 41 37 55 50 36 33 152 86 207 96 74 12 190 1 263
-27z m-9392 -1353 c2 -5 11 -10 20 -10 30 0 77 -36 97 -73 11 -21 23 -37 27
-37 4 0 11 -18 14 -40 4 -22 10 -40 15 -40 5 0 9 -18 9 -40 0 -22 -4 -40 -10
-40 -5 0 -10 -18 -10 -39 0 -22 -3 -41 -7 -43 -5 -1 -17 -20 -27 -40 -11 -21
-25 -38 -33 -38 -7 0 -13 -5 -13 -11 0 -16 -54 -64 -92 -82 -78 -37 -212 -66
-298 -65 -52 0 -120 35 -167 85 -47 50 -59 87 -50 166 6 58 42 147 50 125 3
-7 6 -1 6 14 1 16 11 34 26 46 14 11 25 25 25 30 0 6 10 14 22 18 12 3 44 24
71 45 27 22 61 42 75 45 15 3 47 14 72 25 34 14 61 18 110 14 36 -3 66 -9 68
-15z m3686 -377 c38 -9 130 -40 205 -70 266 -105 412 -131 604 -106 119 15
207 36 352 85 142 48 256 60 336 36 47 -14 112 -67 133 -109 64 -129 30 -365
-108 -745 -7 -18 -17 -38 -23 -45 -6 -8 -18 -28 -26 -45 -9 -17 -43 -58 -76
-91 -46 -47 -78 -68 -138 -93 -74 -32 -84 -33 -213 -34 -122 -1 -175 4 -335
33 -27 5 -93 17 -145 26 -69 12 -187 19 -425 24 -309 7 -334 9 -395 31 -98 34
-149 66 -211 130 -100 104 -143 226 -142 400 3 255 116 473 291 556 94 45 176
49 316 17z"/>
</g>
</svg>
