<?xml version="1.0" standalone="no"?>
<!DOCTYPE svg PUBLIC "-//W3C//DTD SVG 20010904//EN"
 "http://www.w3.org/TR/2001/REC-SVG-20010904/DTD/svg10.dtd">
<svg version="1.0" xmlns="http://www.w3.org/2000/svg"
 width="64.000000pt" height="64.000000pt" viewBox="0 0 64.000000 64.000000"
 preserveAspectRatio="xMidYMid meet">
<metadata>
Created by potrace 1.16, written by Peter Selinger 2001-2019
</metadata>
<g transform="translate(0.000000,64.000000) scale(0.100000,-0.100000)"
fill="#000000" stroke="none">
<path d="M65 567 c-3 -7 -4 -91 -3 -187 l3 -175 98 -3 98 -3 -3 -37 c-3 -35
-5 -37 -40 -40 -30 -3 -38 -7 -38 -23 0 -14 -7 -19 -25 -19 -14 0 -25 -4 -25
-10 0 -6 70 -10 190 -10 120 0 190 4 190 10 0 6 -11 10 -25 10 -18 0 -25 5
-25 19 0 16 -8 20 -37 23 -36 3 -38 5 -41 40 l-3 37 98 3 98 3 0 185 0 185
-253 3 c-200 2 -254 0 -257 -11z m483 -19 c17 -17 17 -299 0 -316 -17 -17
-439 -17 -456 0 -17 17 -17 299 0 316 17 17 439 17 456 0z"/>
<path d="M100 400 l0 -140 220 0 220 0 0 140 0 140 -220 0 -220 0 0 -140z
m420 0 l0 -120 -200 0 -200 0 0 120 0 120 200 0 200 0 0 -120z"/>
<path d="M310 470 c0 -5 -13 -10 -30 -10 l-30 0 0 -70 0 -70 70 0 70 0 0 30
c0 17 5 30 10 30 6 0 10 23 10 50 l0 50 -50 0 c-27 0 -50 -4 -50 -10z"/>
</g>
</svg>
